<svg width="57" height="72" viewBox="0 0 57 72" fill="none" xmlns="http://www.w3.org/2000/svg">
<path d="M55.0371 23.5794C54.3523 22.7425 53.4393 22.1338 52.2981 21.9056C49.8634 9.27576 40.0487 0.221863 28.5601 0.221863C17.0716 0.221863 7.25685 9.27576 4.82219 21.9056C3.75702 22.1338 2.76794 22.6664 2.08319 23.5794C0.105028 26.0141 0.713694 29.7421 0.941943 30.8834C2.23536 37.1222 6.41993 36.4375 7.9416 36.2092C8.09376 36.2092 8.24593 36.1331 8.3981 36.1331C9.23501 36.1331 9.91976 35.4484 9.91976 34.6115C9.91976 33.7746 9.23501 33.0898 8.3981 33.0898C8.09376 33.0898 7.78943 33.1659 7.4851 33.1659C6.03952 33.3941 4.59394 33.6224 3.90919 30.1986C3.52877 28.2205 3.68094 26.3184 4.44177 25.4815C4.67002 25.1771 5.05044 24.8728 5.96343 24.8728H6.1156C6.87643 24.9489 7.56118 24.3402 7.63726 23.5794C9.46326 11.7865 18.2889 3.26519 28.5601 3.26519C38.8314 3.26519 47.657 11.7865 49.483 23.5794C49.6352 24.3402 50.2438 24.8728 51.0047 24.8728H51.1568C52.0698 24.8728 52.4503 25.2532 52.6785 25.4815C53.3633 26.3945 53.5915 28.2966 53.2111 30.1986C52.5263 33.6224 51.0808 33.3941 49.6352 33.1659C49.3308 33.0898 49.0265 33.0898 48.7222 33.0898C48.3418 33.0898 48.0374 33.242 47.7331 33.4702C47.657 33.5463 37.9945 41.6872 27.5711 39.4808C27.2667 38.4156 26.2016 37.5787 25.0603 37.5787C23.6147 37.5787 22.3974 38.796 22.3974 40.2416C22.3974 41.6872 23.6147 42.9045 25.0603 42.9045C25.669 42.9045 26.2016 42.6763 26.6581 42.372C28.2558 42.7524 29.8536 42.9045 31.3752 42.9045C40.0487 42.9045 47.2766 37.7309 49.2548 36.2092C50.8525 36.4375 54.961 37.0461 56.2544 30.8834C56.4066 29.7421 57.0153 25.938 55.0371 23.5794Z" fill="black"/>
<path d="M39.8968 44.0458C40.9619 43.1328 41.8749 42.1437 42.7118 41.0025C40.7337 41.9155 38.3751 42.7524 35.8643 43.2089C33.6579 44.5784 31.2233 45.3392 28.5604 45.3392C19.8869 45.3392 12.8872 37.1222 12.8872 27.0792C12.8872 17.0363 19.8869 8.81927 28.5604 8.81927C37.2338 8.81927 44.2335 17.0363 44.2335 27.0792C44.2335 30.4269 43.4727 33.4702 42.1792 36.2092C44.0813 35.2201 45.5269 34.2311 46.4399 33.5463C47.0486 31.4921 47.3529 29.3617 47.3529 27.0792C47.3529 15.3624 38.9838 5.77594 28.6364 5.77594C18.2891 5.77594 9.91998 15.3624 9.91998 27.0792C9.91998 34.0028 12.8111 40.1655 17.3 44.0458C8.24615 46.4044 1.17041 52.7953 1.17041 58.7298C1.17041 67.4033 14.9415 71.2836 28.5604 71.2836C42.1792 71.2836 55.9503 67.4033 55.9503 58.7298C55.9503 52.7953 48.8746 46.4044 39.8968 44.0458ZM28.5604 68.2402C14.485 68.2402 4.21374 64.2078 4.21374 58.7298C4.21374 54.4692 10.5286 48.3825 19.6586 46.5565L20.7238 46.3283C23.0824 47.6217 25.7453 48.3064 28.5604 48.3064C31.3754 48.3064 34.0383 47.6217 36.3969 46.3283L37.4621 46.5565C46.5921 48.3825 52.907 54.3931 52.907 58.7298C52.907 64.2839 42.6357 68.2402 28.5604 68.2402Z" fill="black"/>
</svg>
