<svg width="75" height="71" viewBox="0 0 75 71" fill="none" xmlns="http://www.w3.org/2000/svg">
<path d="M20.8385 35.194C21.1419 34.888 21.5212 34.5054 21.8246 34.1994C23.1142 32.8988 23.7969 31.3686 23.7969 29.8384C23.7969 28.3082 23.1142 26.7781 21.8246 25.4774L18.5628 22.2641C18.1835 21.8815 17.8042 21.499 17.4249 21.1164C16.6663 20.3513 15.9836 19.5863 15.2251 18.8977C14.0113 17.6735 12.5701 17.0615 11.0529 17.0615C9.53576 17.0615 8.09448 17.6735 6.80491 18.8977L2.70862 23.0291C1.11562 24.6358 0.281191 26.5485 0.0536199 28.7673C-0.249809 32.2867 0.812191 35.5766 1.57076 37.7953C3.46719 43.0744 6.42562 47.8944 10.6736 53.1735C15.9078 59.4473 22.2039 64.4203 29.3345 67.9397C32.2171 69.1638 35.8582 70.694 39.9545 71.0001C40.1821 71.0001 40.4855 71.0001 40.7131 71.0001C43.5198 71.0001 45.9472 70.0054 47.7678 67.9397L47.8436 67.8632C48.4505 67.0981 49.1332 66.4095 49.8918 65.721C50.4228 65.1854 50.9538 64.7263 51.4089 64.1908C53.9122 61.5895 53.9122 58.0701 51.4089 55.5453L44.8852 48.9656C43.6715 47.6649 42.2302 46.9763 40.6372 46.9763C39.1201 46.9763 37.6029 47.6649 36.3892 48.8891L32.8239 52.485C32.5963 52.3319 32.3688 52.2554 32.0653 52.1024C31.6102 51.8729 31.2309 51.7199 30.9275 51.4904C27.4381 49.2716 24.2521 46.3643 21.2178 42.6154C19.8523 40.8557 18.8662 39.3255 18.1835 37.7953C19.1696 36.9537 20.0041 36.0356 20.8385 35.194ZM18.1076 32.5162C17.1215 33.5108 16.1353 34.5054 15.1492 35.4235L15.0733 35.5001C13.9355 36.6477 14.1631 37.7953 14.3906 38.4839C14.3906 38.5604 14.3906 38.5604 14.4665 38.6369C15.3009 40.7026 16.5146 42.6919 18.3352 44.9871C21.5971 49.1186 25.0865 52.2554 28.9552 54.7037C29.4862 55.0098 29.9413 55.2393 30.4723 55.5453C30.9275 55.7748 31.3068 55.9279 31.6102 56.1574C31.6861 56.1574 31.6861 56.2339 31.7619 56.2339C32.9756 56.846 34.1135 56.6164 35.0996 55.6218L39.1959 51.4904C39.5752 51.1078 40.1062 50.6488 40.7889 50.6488C41.3958 50.6488 41.9268 51.1078 42.3061 51.4904L48.8298 58.0701C49.8918 59.1412 49.8918 60.2123 48.7539 61.36C48.2988 61.819 47.8436 62.2781 47.3126 62.8136C46.5541 63.5787 45.7196 64.3438 45.0369 65.1854C43.8991 66.4095 42.5336 66.9451 40.7889 66.9451C40.6372 66.9451 40.4096 66.9451 40.2579 66.9451C36.7685 66.7156 33.5066 65.3384 31.0792 64.1908C24.4038 60.9009 18.5628 56.3104 13.7079 50.4192C9.68748 45.5227 7.03248 41.0087 5.21191 36.1886C4.14991 33.2813 3.69476 30.986 3.92233 28.8438C3.99819 27.5432 4.52919 26.3955 5.51534 25.4774L9.53576 21.4225C9.91505 21.0399 10.446 20.6574 11.1288 20.6574C11.8115 20.6574 12.3425 21.0399 12.7218 21.4225C13.4045 22.111 14.0872 22.7996 14.8458 23.5647C15.2251 23.9473 15.6043 24.3298 15.9836 24.7123L19.2455 28.0022C19.6248 28.3848 20.0799 28.9968 20.0799 29.6089C20.0799 30.221 19.6248 30.833 19.2455 31.2156C18.7903 31.8276 18.4869 32.1337 18.1076 32.5162ZM51.4848 5.34058e-05C64.4563 5.34058e-05 75.0005 9.41061 75.0005 21.0399C75.0005 32.6692 64.4563 42.0798 51.4848 42.0798C49.3608 42.0798 47.2368 41.8503 45.1886 41.3147C44.2025 41.0852 43.5198 40.0141 43.8232 39.0194C44.0508 38.0248 45.1128 37.3363 46.0989 37.6423C47.8436 38.1013 49.6642 38.3309 51.4848 38.3309C62.4082 38.3309 71.2076 30.6035 71.2076 21.1164C71.2076 11.6294 62.3323 3.90199 51.4848 3.90199C40.6372 3.90199 31.7619 11.6294 31.7619 21.1164C31.7619 25.0184 33.2791 28.7673 36.0858 31.8276C36.5409 32.3632 36.6926 33.1283 36.4651 33.8169C36.0099 34.9645 35.4789 35.9591 34.7962 36.8772C36.0099 36.7242 37.4512 36.3416 38.7408 35.5766C39.6511 35.041 40.7889 35.347 41.3199 36.2651C41.8509 37.1832 41.5475 38.3309 40.6372 38.8664C36.9961 41.0852 33.1273 40.9322 31.1551 40.6261C30.0931 40.4731 29.3345 39.708 29.1069 38.7134C28.8793 37.6423 29.3345 36.6477 30.1689 36.0356C31.0792 35.4235 31.8378 34.582 32.4446 33.5108C29.5621 29.9149 27.9691 25.5539 27.9691 21.1164C27.8932 9.41061 38.5132 5.34058e-05 51.4848 5.34058e-05ZM41.8509 19.1272H61.1186C62.1806 19.1272 63.0151 19.9688 63.0151 21.0399C63.0151 22.111 62.1806 22.9526 61.1186 22.9526H41.8509C40.7889 22.9526 39.9545 22.111 39.9545 21.0399C39.9545 19.9688 40.7889 19.1272 41.8509 19.1272ZM41.5475 14.0776C41.5475 13.0065 42.3819 12.1649 43.4439 12.1649H59.4498C60.5118 12.1649 61.3462 13.0065 61.3462 14.0776C61.3462 15.1488 60.5118 15.9904 59.4498 15.9904H43.4439C42.3819 15.9904 41.5475 15.1488 41.5475 14.0776ZM41.5475 28.0022C41.5475 26.9311 42.3819 26.0895 43.4439 26.0895H59.4498C60.5118 26.0895 61.3462 26.9311 61.3462 28.0022C61.3462 29.0733 60.5118 29.9149 59.4498 29.9149H43.4439C42.3819 29.9149 41.5475 29.0733 41.5475 28.0022Z" fill="black"/>
</svg>
